<svg width="72" height="65" viewBox="0 0 72 65" fill="none" xmlns="http://www.w3.org/2000/svg">
<g clip-path="url(#clip0_9_11)">
<path d="M34.4653 11.9816C33.7957 16.9269 30.3593 19.5779 27.6314 19.1803C24.9035 18.7826 22.3043 15.2518 22.974 10.3066C23.6437 5.36132 27.08 2.71029 29.8079 3.10792C32.5358 3.50556 35.135 7.03638 34.4653 11.9816Z" stroke="white" stroke-width="4"/>
<path d="M42.9494 14.958C40.1881 18.9811 40.8819 23.3648 43.1708 25.0558C45.4596 26.7468 49.6794 25.9932 52.4406 21.9701C55.2018 17.9471 54.5081 13.5634 52.2192 11.8724C49.9303 10.1814 45.7106 10.935 42.9494 14.958Z" stroke="white" stroke-width="4"/>
<path d="M13.9679 14.7947C14.1539 19.7879 11.2231 23.0272 8.47358 23.1375C5.72408 23.2477 2.56103 20.2528 2.375 15.2596C2.18898 10.2665 5.11977 7.02712 7.86928 6.91686C10.6188 6.8066 13.7818 9.80157 13.9679 14.7947Z" stroke="white" stroke-width="4"/>
<path d="M55.3675 29.5326C52.3032 33.2936 52.6333 37.7228 54.7897 39.6141C56.9462 41.5053 61.2107 41.1056 64.275 37.3446C67.3393 33.5836 67.0093 29.1544 64.8528 27.2631C62.6963 25.3719 58.4319 25.7716 55.3675 29.5326Z" stroke="white" stroke-width="4"/>
<g clip-path="url(#clip1_9_11)">
<path d="M46.8884 35.3572C46.3259 34.1623 45.542 33.0941 44.5815 32.2136C43.621 31.333 42.5027 30.6575 41.2904 30.2255C40.0782 29.7936 38.7958 29.6136 37.5166 29.696C36.2373 29.7783 34.9862 30.1214 33.8347 30.7055L31.4454 31.9169L30.2777 29.4379C29.1413 27.0251 27.1275 25.1796 24.6795 24.3072C22.2315 23.4348 19.5497 23.6072 17.2241 24.7862C14.8985 25.9653 13.1197 28.0546 12.2788 30.5944C11.438 33.1342 11.6041 35.9166 12.7405 38.3294L22.4783 59.0032L42.4048 48.9003C43.5565 48.3168 44.5861 47.5035 45.4348 46.5069C46.2835 45.5104 46.9346 44.3502 47.351 43.0925C47.7673 41.8348 47.9408 40.5043 47.8614 39.1771C47.782 37.8498 47.4514 36.5518 46.8884 35.3572Z" stroke="white" stroke-width="4" stroke-linecap="round" stroke-linejoin="round"/>
</g>
</g>
<defs>
<clipPath id="clip0_9_11">
<rect width="72" height="65" fill="white"/>
</clipPath>
<clipPath id="clip1_9_11">
<rect width="42.7486" height="44.0083" fill="white" transform="matrix(0.941977 0.335677 -0.314282 0.94933 14.5788 14.8719)"/>
</clipPath>
</defs>
</svg>
