<svg width="93" height="93" viewBox="0 0 93 93" fill="none" xmlns="http://www.w3.org/2000/svg">
<rect width="93" height="93" fill="white"/>
<path d="M45.4653 27.9816C44.7957 32.9269 41.3593 35.5779 38.6314 35.1803C35.9035 34.7826 33.3043 31.2518 33.974 26.3066C34.6437 21.3613 38.08 18.7103 40.8079 19.1079C43.5358 19.5056 46.135 23.0364 45.4653 27.9816Z" stroke="black" stroke-width="4"/>
<path d="M53.9494 30.958C51.1881 34.9811 51.8819 39.3648 54.1708 41.0558C56.4596 42.7468 60.6794 41.9932 63.4406 37.9701C66.2018 33.9471 65.5081 29.5634 63.2192 27.8724C60.9303 26.1814 56.7106 26.935 53.9494 30.958Z" stroke="black" stroke-width="4"/>
<path d="M24.9679 30.7947C25.1539 35.7879 22.2231 39.0272 19.4736 39.1375C16.7241 39.2477 13.561 36.2528 13.375 31.2596C13.189 26.2665 16.1198 23.0271 18.8693 22.9169C21.6188 22.8066 24.7818 25.8016 24.9679 30.7947Z" stroke="black" stroke-width="4"/>
<path d="M66.3675 45.5326C63.3032 49.2936 63.6333 53.7228 65.7897 55.6141C67.9462 57.5053 72.2107 57.1056 75.275 53.3446C78.3393 49.5836 78.0093 45.1544 75.8528 43.2631C73.6963 41.3719 69.4319 41.7716 66.3675 45.5326Z" stroke="black" stroke-width="4"/>
<g clip-path="url(#clip0_9_11)">
<path d="M57.8884 51.3572C57.3259 50.1623 56.542 49.0941 55.5815 48.2136C54.621 47.333 53.5027 46.6575 52.2904 46.2255C51.0782 45.7936 49.7958 45.6136 48.5166 45.696C47.2373 45.7783 45.9862 46.1214 44.8347 46.7055L42.4454 47.9169L41.2777 45.4379C40.1413 43.0251 38.1275 41.1796 35.6795 40.3072C33.2315 39.4348 30.5497 39.6072 28.2241 40.7862C25.8985 41.9653 24.1197 44.0546 23.2788 46.5944C22.438 49.1342 22.6041 51.9166 23.7405 54.3294L33.4783 75.0032L53.4048 64.9003C54.5565 64.3168 55.5861 63.5035 56.4348 62.5069C57.2835 61.5104 57.9346 60.3502 58.351 59.0925C58.7673 57.8348 58.9408 56.5043 58.8614 55.1771C58.782 53.8498 58.4514 52.5518 57.8884 51.3572Z" stroke="black" stroke-width="4" stroke-linecap="round" stroke-linejoin="round"/>
</g>
<defs>
<clipPath id="clip0_9_11">
<rect width="42.7486" height="44.0083" fill="white" transform="matrix(0.941977 0.335677 -0.314282 0.94933 25.5788 30.8719)"/>
</clipPath>
</defs>
</svg>
